<svg xmlns="http://www.w3.org/2000/svg" xmlns:xlink="http://www.w3.org/1999/xlink" viewBox="0 0 100 100" version="1.1" x="0px" y="0px"><title>Close 2.12</title><desc>Created with Sketch.</desc><g stroke="none" stroke-width="1" fill="none" fill-rule="evenodd"><g fill="#ffffff"><path d="M73.0603299,34.4396701 C74.1315801,33.3684199 74.1249764,31.6249764 73.049042,30.549042 L69.450958,26.950958 C68.3734737,25.8734737 66.6321723,25.8678277 65.5603299,26.9396701 L51.9396701,40.5603299 C50.8684199,41.6315801 49.1321723,41.6321723 48.0603299,40.5603299 L34.4396701,26.9396701 C33.3684199,25.8684199 31.6249764,25.8750236 30.549042,26.950958 L26.950958,30.549042 C25.8734737,31.6265263 25.8678277,33.3678277 26.9396701,34.4396701 L40.5603299,48.0603299 C41.6315801,49.1315801 41.6321723,50.8678277 40.5603299,51.9396701 L26.9396701,65.5603299 C25.8684199,66.6315801 25.8750236,68.3750236 26.950958,69.450958 L30.549042,73.049042 C31.6265263,74.1265263 33.3678277,74.1321723 34.4396701,73.0603299 L48.0603299,59.4396701 C49.1315801,58.3684199 50.8678277,58.3678277 51.9396701,59.4396701 L65.5603299,73.0603299 C66.6315801,74.1315801 68.3750236,74.1249764 69.450958,73.049042 L73.049042,69.450958 C74.1265263,68.3734737 74.1321723,66.6321723 73.0603299,65.5603299 L59.4396701,51.9396701 C58.3684199,50.8684199 58.3678277,49.1321723 59.4396701,48.0603299 L73.0603299,34.4396701 Z" transform="translate(50.000000, 50.000000) rotate(45.000000) translate(-50.000000, -50.000000) "/></g></g></svg>